<svg width="265" height="63" viewBox="0 0 265 63" fill="none" xmlns="http://www.w3.org/2000/svg">
<path d="M104.52 44V18.08H114.528C114.78 18.08 115.062 18.092 115.374 18.116C115.698 18.128 116.022 18.164 116.346 18.224C117.702 18.428 118.848 18.902 119.784 19.646C120.732 20.378 121.446 21.302 121.926 22.418C122.418 23.534 122.664 24.77 122.664 26.126C122.664 27.47 122.418 28.7 121.926 29.816C121.434 30.932 120.714 31.862 119.766 32.606C118.83 33.338 117.69 33.806 116.346 34.01C116.022 34.058 115.698 34.094 115.374 34.118C115.062 34.142 114.78 34.154 114.528 34.154H107.166V44H104.52ZM107.166 31.634H114.456C114.672 31.634 114.924 31.622 115.212 31.598C115.5 31.574 115.782 31.532 116.058 31.472C116.946 31.28 117.672 30.914 118.236 30.374C118.812 29.834 119.238 29.192 119.514 28.448C119.802 27.704 119.946 26.93 119.946 26.126C119.946 25.322 119.802 24.548 119.514 23.804C119.238 23.048 118.812 22.4 118.236 21.86C117.672 21.32 116.946 20.954 116.058 20.762C115.782 20.702 115.5 20.666 115.212 20.654C114.924 20.63 114.672 20.618 114.456 20.618H107.166V31.634ZM134.259 44.54C132.327 44.54 130.677 44.102 129.309 43.226C127.941 42.35 126.891 41.138 126.159 39.59C125.427 38.042 125.061 36.266 125.061 34.262C125.061 32.222 125.433 30.434 126.177 28.898C126.921 27.362 127.977 26.168 129.345 25.316C130.725 24.452 132.363 24.02 134.259 24.02C136.203 24.02 137.859 24.458 139.227 25.334C140.607 26.198 141.657 27.404 142.377 28.952C143.109 30.488 143.475 32.258 143.475 34.262C143.475 36.302 143.109 38.096 142.377 39.644C141.645 41.18 140.589 42.38 139.209 43.244C137.829 44.108 136.179 44.54 134.259 44.54ZM134.259 42.002C136.419 42.002 138.027 41.288 139.083 39.86C140.139 38.42 140.667 36.554 140.667 34.262C140.667 31.91 140.133 30.038 139.065 28.646C138.009 27.254 136.407 26.558 134.259 26.558C132.807 26.558 131.607 26.888 130.659 27.548C129.723 28.196 129.021 29.102 128.553 30.266C128.097 31.418 127.869 32.75 127.869 34.262C127.869 36.602 128.409 38.48 129.489 39.896C130.569 41.3 132.159 42.002 134.259 42.002ZM147.446 44V24.56H149.822V29.24L149.354 28.628C149.57 28.052 149.852 27.524 150.2 27.044C150.548 26.552 150.926 26.15 151.334 25.838C151.838 25.394 152.426 25.058 153.098 24.83C153.77 24.59 154.448 24.452 155.132 24.416C155.816 24.368 156.44 24.416 157.004 24.56V27.044C156.296 26.864 155.522 26.822 154.682 26.918C153.842 27.014 153.068 27.35 152.36 27.926C151.712 28.43 151.226 29.036 150.902 29.744C150.578 30.44 150.362 31.184 150.254 31.976C150.146 32.756 150.092 33.53 150.092 34.298V44H147.446ZM171.002 44C169.91 44.228 168.83 44.318 167.762 44.27C166.706 44.222 165.758 43.994 164.918 43.586C164.09 43.178 163.46 42.542 163.028 41.678C162.68 40.958 162.488 40.232 162.452 39.5C162.428 38.756 162.416 37.91 162.416 36.962V19.16H165.044V36.854C165.044 37.67 165.05 38.354 165.062 38.906C165.086 39.446 165.212 39.926 165.44 40.346C165.872 41.15 166.556 41.63 167.492 41.786C168.44 41.942 169.61 41.906 171.002 41.678V44ZM158.258 26.828V24.56H171.002V26.828H158.258ZM176.759 44V23.12C176.759 22.616 176.783 22.118 176.831 21.626C176.891 21.134 177.005 20.666 177.173 20.222C177.341 19.766 177.605 19.346 177.965 18.962C178.361 18.53 178.793 18.218 179.261 18.026C179.729 17.822 180.215 17.69 180.719 17.63C181.235 17.57 181.739 17.54 182.23 17.54H184.715V19.772H182.411C181.403 19.772 180.647 20.018 180.143 20.51C179.651 21.002 179.405 21.776 179.405 22.832V44H176.759ZM173.393 26.828V24.56H184.715V26.828H173.393ZM195.009 44.54C193.077 44.54 191.427 44.102 190.059 43.226C188.691 42.35 187.641 41.138 186.909 39.59C186.177 38.042 185.811 36.266 185.811 34.262C185.811 32.222 186.183 30.434 186.927 28.898C187.671 27.362 188.727 26.168 190.095 25.316C191.475 24.452 193.113 24.02 195.009 24.02C196.953 24.02 198.609 24.458 199.977 25.334C201.357 26.198 202.407 27.404 203.127 28.952C203.859 30.488 204.225 32.258 204.225 34.262C204.225 36.302 203.859 38.096 203.127 39.644C202.395 41.18 201.339 42.38 199.959 43.244C198.579 44.108 196.929 44.54 195.009 44.54ZM195.009 42.002C197.169 42.002 198.777 41.288 199.833 39.86C200.889 38.42 201.417 36.554 201.417 34.262C201.417 31.91 200.883 30.038 199.815 28.646C198.759 27.254 197.157 26.558 195.009 26.558C193.557 26.558 192.357 26.888 191.409 27.548C190.473 28.196 189.771 29.102 189.303 30.266C188.847 31.418 188.619 32.75 188.619 34.262C188.619 36.602 189.159 38.48 190.239 39.896C191.319 41.3 192.909 42.002 195.009 42.002ZM208.556 44V17.54H211.202V44H208.556ZM216.958 20.87V17.9H219.604V20.87H216.958ZM216.958 44V24.56H219.604V44H216.958ZM233.118 44.54C231.186 44.54 229.536 44.102 228.168 43.226C226.8 42.35 225.75 41.138 225.018 39.59C224.286 38.042 223.92 36.266 223.92 34.262C223.92 32.222 224.292 30.434 225.036 28.898C225.78 27.362 226.836 26.168 228.204 25.316C229.584 24.452 231.222 24.02 233.118 24.02C235.062 24.02 236.718 24.458 238.086 25.334C239.466 26.198 240.516 27.404 241.236 28.952C241.968 30.488 242.334 32.258 242.334 34.262C242.334 36.302 241.968 38.096 241.236 39.644C240.504 41.18 239.448 42.38 238.068 43.244C236.688 44.108 235.038 44.54 233.118 44.54ZM233.118 42.002C235.278 42.002 236.886 41.288 237.942 39.86C238.998 38.42 239.526 36.554 239.526 34.262C239.526 31.91 238.992 30.038 237.924 28.646C236.868 27.254 235.266 26.558 233.118 26.558C231.666 26.558 230.466 26.888 229.518 27.548C228.582 28.196 227.88 29.102 227.412 30.266C226.956 31.418 226.728 32.75 226.728 34.262C226.728 36.602 227.268 38.48 228.348 39.896C229.428 41.3 231.018 42.002 233.118 42.002Z" fill="url(#paint0_linear_22_88)"/>
<path d="M38.5 3C38.5 16.1429 52.2841 24.7296 64.0808 18.9353L67.5118 17.25C55.676 23.0635 55.676 39.9365 67.5118 45.75L64.0808 44.0647C52.2841 38.2704 38.5 46.8571 38.5 60C38.5 46.8571 24.7159 38.2704 12.9192 44.0647L9.48815 45.75C21.324 39.9365 21.324 23.0635 9.48815 17.25L12.9192 18.9353C24.7159 24.7296 38.5 16.1429 38.5 3Z" fill="url(#paint1_linear_22_88)" fill-opacity="0.97"/>
<path d="M77 30C77 46.5685 59.763 60 38.5 60C17.237 60 0 46.5685 0 30C0 13.4315 17.237 0 38.5 0C59.763 0 77 13.4315 77 30ZM6.37438 30C6.37438 43.8253 20.7575 55.033 38.5 55.033C56.2425 55.033 70.6256 43.8253 70.6256 30C70.6256 16.1747 56.2425 4.96705 38.5 4.96705C20.7575 4.96705 6.37438 16.1747 6.37438 30Z" fill="url(#paint2_linear_22_88)"/>
<path d="M46.6317 25.4896C45.0234 24.3008 42.9743 23.4913 40.7435 23.1633C38.5128 22.8354 36.2005 23.0037 34.0991 23.647C31.9978 24.2904 30.2017 25.3798 28.9381 26.7777C27.6745 28.1755 27 29.8189 27 31.5C27 33.1811 27.6745 34.8245 28.9381 36.2223C30.2017 37.6202 31.9978 38.7096 34.0991 39.353C36.2005 39.9963 38.5128 40.1646 40.7435 39.8367C42.9743 39.5087 45.0234 38.6992 46.6317 37.5104L38.5 31.5L46.6317 25.4896Z" fill="url(#paint3_linear_22_88)"/>
<defs>
<linearGradient id="paint0_linear_22_88" x1="183.5" y1="3" x2="183.5" y2="53" gradientUnits="userSpaceOnUse">
<stop stop-color="#F0E2E2"/>
<stop offset="1" stop-color="#171616"/>
</linearGradient>
<linearGradient id="paint1_linear_22_88" x1="38.5" y1="3" x2="38.5" y2="60" gradientUnits="userSpaceOnUse">
<stop stop-color="#005C69"/>
<stop offset="1" stop-color="#005C69" stop-opacity="0"/>
</linearGradient>
<linearGradient id="paint2_linear_22_88" x1="38.5" y1="0" x2="38.5" y2="60" gradientUnits="userSpaceOnUse">
<stop stop-color="#01002C"/>
<stop offset="1" stop-color="#A9C4D8"/>
</linearGradient>
<linearGradient id="paint3_linear_22_88" x1="38.5" y1="23" x2="38.5" y2="40" gradientUnits="userSpaceOnUse">
<stop stop-color="#33A638"/>
<stop offset="1"/>
</linearGradient>
</defs>
</svg>
